<svg id="Layer_1" xmlns="http://www.w3.org/2000/svg" viewBox="0 0 464.16 273.88">
  <defs>
    <style>
      .cls-1{fill:#16592e;}
      .cls-2{fill:#d9b385;}
      .cls-3{fill:#d6ad7d;}
      .cls-4{fill:#ba797f;}
      .cls-5{fill:#61a37b;}
      .cls-6{fill:#bf8034;}
    </style>
  </defs>
  <g id="lotus-icon">
    <!-- Optimized with wide gaps to prevent small-scale merging -->
    <path class="cls-3" d="M 143.5166 78.4964 s -1.7077 51.5322 51.7304 77.3557 c 2.5886 3.0494 -5.5644 -12.1864 -7.2966 -26.3182 2.5886 3.0494 -17.9691 -16.1579 -17.4022 -38.8629 2.5886 3.0494 -10.2350 -4.5389 -22.5521 -6.6925 Z"/>
    <path class="cls-3" d="M 293.5271 78.8295 s 2.9310 51.6251 -51.2499 77.7297 c 3.6046 1.7340 8.4738 -11.8713 9.0758 -26.1560 3.6046 1.7340 19.7782 -15.0405 18.6538 -38.5061 3.6046 1.7340 13.6418 -2.5206 23.6595 -5.0854 Z"/>
    <path class="cls-3" d="M 194.7083 38.8341 s 11.9180 -23.0862 22.1448 -35.8655 c 3.9957 -0.1865 10.8980 7.9116 22.2762 35.9686 3.9957 -0.1865 -11.3381 9.9713 -19.6747 21.1655 3.9957 -0.1865 -17.5845 -19.5623 -20.6133 -21.3789 Z"/>
    <path class="cls-3" d="M 218.0768 167.2377 s -37.5598 -35.6052 1.4680 -86.6053 c 2.8962 2.7590 41.9893 46.5209 0.9195 86.8098 Z"/>
    <path class="cls-3" d="M 246.6562 113.7565 s 25.3203 -19.9009 1.6690 -63.3268 c 3.7244 1.4592 -9.4903 7.4708 -18.4516 20.5463 3.7244 1.4592 17.3389 13.0726 21.4146 41.4034 Z"/>
    <path class="cls-5" d="M 95.6147 138.2628 s 23.6258 -6.7237 49.5411 -7.5011 c 2.9470 2.7047 15.9650 20.8063 31.7586 28.3758 2.9470 2.7047 -40.1824 18.2348 -84.1524 -20.6545 Z"/>
    <path class="cls-5" d="M 341.6783 140.1864 s -22.2165 -8.8174 -49.2389 -8.5168 c 3.9761 0.4362 -14.3753 22.1664 -31.3025 29.0086 3.9761 0.4362 40.7032 16.8168 -84.0599 -20.9916 Z"/>
    <path class="cls-5" d="M 163.2088 174.3190 s -1.2983 4.9348 -5.5593 8.8276 l 45.0699 1.0845 8.8882 -5.6671 s -1.1848 -0.4037 -10.2266 -1.9528 c 3.1181 2.5055 -9.1380 1.3025 -29.8465 4.1831"/>
    <path class="cls-5" d="M 274.5389 175.1359 s 8.9894 5.1183 13.5106 8.5402 l - 45.1139 1.2880 -5.3118 -7.4562 s -0.7736 -1.0797 -10.0632 -2.3365 c 3.6608 1.6120 -9.0451 0.9925 -29.8424 4.1349"/>
    <path class="cls-1" d="M 133.7261 78.4648 c 0.1095 19.8095 8.1653 37.3946 8.1653 37.3946 l -14.3543 1.6675 c -20.4039 -11.7949 -24.9008 -42.4268 -24.9008 -42.4268 3.9497 3.7985 5.9094 2.8546 9.7061 2.0075 5.9994 3.2543 12.8787 2.9065 19.3752 3.8879 Z"/>
    <path class="cls-1" d="M 302.9213 79.1834 c 2.7837 20.1513 -6.7955 37.8371 -6.7955 37.8371 l 14.4471 2.0440 c 21.4101 -10.7965 25.7977 -42.0256 25.7977 -42.0256 -0.1254 0.5202 11.5656 2.3354 -9.2225 0.4838 -4.9229 0.9272 -12.7518 2.0183 -19.3610 3.4512 Z"/>
    <path class="cls-4" d="M 143.1509 68.9641 s 1.2682 -25.5798 6.1087 -40.2890 c 3.6822 0.6659 17.8384 7.4792 27.4650 15.3064 3.7992 1.2514 -5.7321 15.6079 -7.3587 29.8541 3.7992 1.2514 -9.1427 -3.8108 -23.3306 -5.5061 Z"/>
    <path class="cls-4" d="M 293.6915 69.9323 s 1.5909 -25.8734 -4.1467 -40.6561 c 3.8768 0.0248 -17.4542 8.6440 -26.9672 16.3527 3.9321 0.7340 11.4456 15.0961 11.3587 29.9251 3.9321 0.7340 13.8752 -1.9360 23.2329 -4.2316 Z"/>
    <path class="cls-2" d="M 189.9878 113.8457 s -22.9697 -21.3025 0.0230 -63.2605 c 3.4163 2.0806 9.5579 8.1540 19.9836 18.5041 3.4163 2.0806 -11.7028 15.4031 -18.9017 42.4290 Z"/>
  </g>
  <g id="text-branding" fill="#bf8034">
    <path d="M37.17 171.43c2.41.9 4.89 2.19 7.43 3.89 2.08 1.32 3.68 1.98 4.81 1.98.85 0 1.51-.5 1.98-1.49.47-.99.85-2.57 1.13-4.74h3.26c-.47 5.48-.71 15.1-.71 28.89h-3.26c-.57-7.65-2.76-14.09-6.58-19.33-3.82-5.24-9.37-7.86-16.64-7.86-5.1 0-9.25 1.54-12.46 4.6-3.21 3.07-4.81 7.01-4.81 11.82 0 3.59.83 6.7 2.48 9.35 1.65 2.64 3.75 4.91 6.3 6.8 2.55 1.89 6.18 4.3 10.9 7.22l4.11 2.55c5.95 3.68 10.64 6.92 14.09 9.7 3.44 2.79 6.21 5.97 8.28 9.56 2.08 3.59 3.12 7.79 3.12 12.6 0 8.59-2.83 15.22-8.5 19.9-5.66 4.67-12.84 7.01-21.52 7.01-4.53 0-8.24-.47-11.12-1.42-2.88-.94-5.64-2.22-8.28-3.82-2.08-1.32-3.68-1.98-4.81-1.98-.85 0-1.51.49-1.98 1.49-.47.99-.85 2.57-1.13 4.74H0c.38-5.19.57-16.52.57-33.99h3.26c.66 9.54 3.02 17.28 7.08 23.22 4.06 5.95 10.29 8.92 18.69 8.92 5.1 0 9.44-1.58 13.03-4.74 3.59-3.16 5.38-7.86 5.38-14.09 0-5.29-1.77-9.77-5.31-13.45s-9.13-7.83-16.78-12.46c-5.57-3.4-10.08-6.42-13.52-9.06-3.45-2.64-6.25-5.83-8.42-9.56-2.17-3.73-3.26-8.09-3.26-13.1 0-7.93 2.55-13.99,7.65-18.2 5.1-4.2 11.42-6.3,18.97-6.3 4.15 0 7.43.45 9.84-1.35Z"/>
    <path d="M176.15 198.97v2.83c-1.98.28-3.73 1.16-5.24 2.62-1.51 1.46-2.83 3.89-3.97 7.29l-20.53 60.89h-2.41l-22.37-56.92-20.25 56.92h-2.41l-23.22-62.73c-1.32-3.3-2.67-5.45-4.04-6.44-1.37-.99-2.76-1.49-4.18-1.49v-2.97c3.68.57 7.83.85 12.46.85s10.85-.28 18.41-.85v2.97c-3.49 0-6.02.28-7.58.85-1.56.57-2.34 2.03-2.34 4.39,0 1.7.47 3.92 1.42 6.66l14.16 40.78 20.39-56.22h3.26l21.67 57.21,13.31-40.5c.85-2.55 1.27-4.67 1.27-6.37 0-2.27-.8-3.92-2.41-4.96-1.61-1.04-4.3-1.7-8.07-1.98v-2.83c5 .28 8.97.42 11.89.42,4.15 0 7.74-.14 10.76-.42Z"/>
    <path d="M185.57 268.43c-2.88-2.97-4.32-7.1-4.32-12.39 0-4.25 1.16-7.74 3.47-10.48 2.31-2.74 5.05-4.91 8.21-6.51 3.16-1.6 7.34-3.3 12.53-5.1 5.29-1.79 9.2-3.45 11.75-4.96,2.55-1.51 3.82-3.54 3.82-6.09v-8.78c0-5.47-1.16-9.23-3.47-11.26-2.31-2.03-5.55-3.04-9.7-3.04-6.61,0-11.28 1.7-14.02 5.1 1.89.47 3.47 1.46 4.74 2.97 1.27 1.51 1.91 3.4 1.91 5.66s-.76 4.23-2.27 5.59c-1.51 1.37-3.45 2.05-5.81 2.05-2.64 0-4.63-.83-5.95-2.48-1.32-1.65-1.98-3.66-1.98-6.02s.54-4.15 1.63-5.66c1.08-1.51 2.71-3.02 4.89-4.53,2.27-1.6 5.14-2.92 8.64-3.96,3.49-1.04 7.31-1.56 11.47-1.56 7.36,0 12.93 1.75 16.71 5.24,2.36 2.17 3.94 4.79 4.74 7.86.8 3.07 1.2 7.1 1.2 12.11v39.37c0 2.36.33 4.06.99 5.1.66 1.04 1.79 1.56 3.4 1.56 1.13 0 2.19-.26 3.19-.78.99-.52 2.05-1.25 3.19-2.19l1.56 2.41c-2.46 1.89-4.56 3.23-6.3 4.04-1.75.8-3.94 1.2-6.58 1.2-4.53,0-7.69-1.13-9.49-3.4-1.79-2.27-2.69-5.33-2.69-9.2-2.83 4.72-6.09 8-9.77 9.84-3.68 1.84-7.84 2.76-12.46 2.76-5.95,0-10.36-1.49-13.24-4.46ZM221.04 256.46v-27.75c-.85 1.32-2.03 2.41-3.54 3.26-1.51.85-3.82 1.98-6.94 3.4-3.59 1.51-6.49 2.95-8.71 4.32-2.22 1.37-4.13 3.23-5.73 5.59-1.61 2.36-2.41 5.38-2.41 9.06,0 4.25 1.04 7.46 3.12 9.63,2.08 2.17 4.81 3.26 8.21 3.26,6.23,0 11.56-3.59 16-10.76Z"/>
    <path d="M303.66 200.24c2.41 2.17 3.61 4.81 3.61 7.93 0 2.46-.73 4.56-2.19 6.3-1.46 1.75-3.42 2.62-5.88 2.62-2.08 0-3.85-.66-5.31-1.98-1.47-1.32-2.19-3.12-2.19-5.38,0-3.12 1.6-5.66 4.81-7.65-.66-.94-1.65-1.42-2.98-1.42-3.68,0-7.03 1.44-10.05 4.32-3.02 2.88-5.38 6.4-7.08 10.55-1.7 4.16-2.55 8.07-2.55 11.75v30.02c0 4.34 1.25 7.36 3.75 9.06,2.5 1.7 6.25 2.55 11.26 2.55v2.97l-3.4-.14c-9.63-.28-15.77-.42-18.41-.42-2.46 0-8.02.19-16.71.57v-2.97c3.96 0 6.75-.73 8.35-2.19,1.6-1.46,2.41-4.13,2.41-8v-44.32c0-4.34-.8-7.5-2.41-9.49-1.61-1.98-4.39-2.97-8.35-2.97v-2.97c3.02.28 5.95.42 8.78.42,5.95 0 10.86-.66 14.73-1.98v17.7c1.7-4.72 4.41-8.92 8.14-12.6s7.86-5.52 12.39-5.52c3.78,0,6.87 1.09,9.27 3.26Z"/>
    <path d="M375.95 202.37c1.79 1.89 3.07 4.25 3.82 7.08.75 2.83 1.13 6.66 1.13 11.47v37.81c0 3.87.8 6.54 2.41 8,1.6 1.46 4.39 2.19 8.36 2.19v2.97c-8.69-.38-14.35-.57-16.99-.57s-7.93.19-15.86.57v-2.97c3.49 0 5.92-.73 7.29-2.19,1.37-1.46,2.05-4.13,2.05-8v-40.92c0-5.29-.76-9.32-2.27-12.11-1.51-2.78-4.58-4.18-9.2-4.18-3.87,0-7.32 1.13-10.34 3.4-3.02 2.27-5.36 5.36-7.01 9.28-1.65 3.92-2.48 8.28-2.48 13.1v31.44c0 3.87.68 6.54 2.05 8,1.37 1.46 3.8 2.19 7.29 2.19v2.97c-7.93-.38-13.22-.57-15.86-.57s-8.31.19-16.99.57v-2.97c3.97 0 6.75-.73 8.36-2.19,1.6-1.46,2.41-4.13,2.41-8v-44.32c0-4.34-.8-7.5-2.41-9.49-1.61-1.98-4.39-2.97-8.36-2.97v-2.97c3.02.28 5.95.42 8.78.42,5.95 0 10.85-.66 14.73-1.98v16.71c2.36-6.04 5.64-10.41 9.84-13.1,4.2-2.69 8.94-4.04 14.23-4.04,6.61,0 11.61 1.79 15.01 5.38Z"/>
    <path d="M403.63 268.43c-2.88-2.97-4.32-7.1-4.32-12.39,0-4.25 1.16-7.74 3.47-10.48 2.31-2.74 5.05-4.91 8.21-6.51 3.16-1.6 7.34-3.3 12.53-5.1 5.29-1.79 9.2-3.45 11.75-4.96,2.55-1.51 3.82-3.54 3.82-6.09v-8.78c0-5.47-1.16-9.23-3.47-11.26-2.31-2.03-5.55-3.04-9.7-3.04-6.61,0-11.28 1.7-14.02 5.1 1.89.47 3.47 1.46 4.74 2.97 1.27 1.51 1.91 3.4 1.91 5.66s-.76 4.23-2.27 5.59c-1.51 1.37-3.45 2.05-5.81 2.05-2.64 0-4.63-.83-5.95-2.48-1.32-1.65-1.98-3.66-1.98-6.02s.54-4.15 1.63-5.66c1.08-1.51 2.71-3.02 4.89-4.53,2.27-1.6 5.14-2.92 8.64-3.96,3.49-1.04 7.31-1.56 11.47-1.56 7.36,0 12.93 1.75 16.71 5.24,2.36 2.17 3.94 4.79 4.74 7.86.8 3.07 1.2 7.1 1.2 12.11v39.37c0 2.36.33 4.06.99 5.1.66 1.04 1.79 1.56 3.4 1.56 1.13 0 2.19-.26 3.19-.78.99-.52 2.05-1.25 3.19-2.19l1.56 2.41c-2.46 1.89-4.56 3.23-6.3 4.04-1.75.8-3.94 1.2-6.58 1.2-4.53,0-7.69-1.13-9.49-3.4-1.79-2.27-2.69-5.33-2.69-9.2-2.83 4.72-6.09 8-9.77 9.84-3.68 1.84-7.84 2.76-12.46 2.76-5.95,0-10.36-1.49-13.24-4.46ZM439.1 256.46v-27.75c-.85 1.32-2.03 2.41-3.54 3.26-1.51.85-3.82 1.98-6.94 3.4-3.59 1.51-6.49 2.95-8.71 4.32-2.22 1.37-4.13 3.23-5.73 5.59-1.61 2.36-2.41 5.38-2.41 9.06,0 4.25 1.04 7.46 3.12 9.63,2.08 2.17 4.81 3.26 8.21 3.26,6.23,0 11.56-3.59 16-10.76Z"/>
  </g>
</svg>
