<svg id="SwarnaFavicon" xmlns="http://www.w3.org/2000/svg" viewBox="88.6 -38 260 260">
  <defs>
    <style>
      .cls-1{fill:#16592e;}
      .cls-2{fill:#d9b385;}
      .cls-3{fill:#d6ad7d;}
      .cls-4{fill:#ba797f;}
      .cls-5{fill:#61a37b;}
      .cls-6{fill:#bf8034;}
    </style>
  </defs>
  <g id="lotus-icon">
    <!-- Optimized with wide gaps to prevent small-scale merging -->
    <path class="cls-3" d="M 143.5166 78.4964 s -1.7077 51.5322 51.7304 77.3557 c 2.5886 3.0494 -5.5644 -12.1864 -7.2966 -26.3182 2.5886 3.0494 -17.9691 -16.1579 -17.4022 -38.8629 2.5886 3.0494 -10.2350 -4.5389 -22.5521 -6.6925 Z"/>
    <path class="cls-3" d="M 293.5271 78.8295 s 2.9310 51.6251 -51.2499 77.7297 c 3.6046 1.7340 8.4738 -11.8713 9.0758 -26.1560 3.6046 1.7340 19.7782 -15.0405 18.6538 -38.5061 3.6046 1.7340 13.6418 -2.5206 23.6595 -5.0854 Z"/>
    <path class="cls-3" d="M 194.7083 38.8341 s 11.9180 -23.0862 22.1448 -35.8655 c 3.9957 -0.1865 10.8980 7.9116 22.2762 35.9686 3.9957 -0.1865 -11.3381 9.9713 -19.6747 21.1655 3.9957 -0.1865 -17.5845 -19.5623 -20.6133 -21.3789 Z"/>
    <path class="cls-3" d="M 218.0768 167.2377 s -37.5598 -35.6052 1.4680 -86.6053 c 2.8962 2.7590 41.9893 46.5209 0.9195 86.8098 Z"/>
    <path class="cls-3" d="M 246.6562 113.7565 s 25.3203 -19.9009 1.6690 -63.3268 c 3.7244 1.4592 -9.4903 7.4708 -18.4516 20.5463 3.7244 1.4592 17.3389 13.0726 21.4146 41.4034 Z"/>
    <path class="cls-5" d="M 95.6147 138.2628 s 23.6258 -6.7237 49.5411 -7.5011 c 2.9470 2.7047 15.9650 20.8063 31.7586 28.3758 2.9470 2.7047 -40.1824 18.2348 -84.1524 -20.6545 Z"/>
    <path class="cls-5" d="M 341.6783 140.1864 s -22.2165 -8.8174 -49.2389 -8.5168 c 3.9761 0.4362 -14.3753 22.1664 -31.3025 29.0086 3.9761 0.4362 40.7032 16.8168 -84.0599 -20.9916 Z"/>
    <path class="cls-5" d="M 163.2088 174.3190 s -1.2983 4.9348 -5.5593 8.8276 l 45.0699 1.0845 8.8882 -5.6671 s -1.1848 -0.4037 -10.2266 -1.9528 c 3.1181 2.5055 -9.1380 1.3025 -29.8465 4.1831"/>
    <path class="cls-5" d="M 274.5389 175.1359 s 8.9894 5.1183 13.5106 8.5402 l - 45.1139 1.2880 -5.3118 -7.4562 s -0.7736 -1.0797 -10.0632 -2.3365 c 3.6608 1.6120 -9.0451 0.9925 -29.8424 4.1349"/>
    <path class="cls-1" d="M 133.7261 78.4648 c 0.1095 19.8095 8.1653 37.3946 8.1653 37.3946 l -14.3543 1.6675 c -20.4039 -11.7949 -24.9008 -42.4268 -24.9008 -42.4268 3.9497 3.7985 5.9094 2.8546 9.7061 2.0075 5.9994 3.2543 12.8787 2.9065 19.3752 3.8879 Z"/>
    <path class="cls-1" d="M 302.9213 79.1834 c 2.7837 20.1513 -6.7955 37.8371 -6.7955 37.8371 l 14.4471 2.0440 c 21.4101 -10.7965 25.7977 -42.0256 25.7977 -42.0256 -0.1254 0.5202 11.5656 2.3354 -9.2225 0.4838 -4.9229 0.9272 -12.7518 2.0183 -19.3610 3.4512 Z"/>
    <path class="cls-4" d="M 143.1509 68.9641 s 1.2682 -25.5798 6.1087 -40.2890 c 3.6822 0.6659 17.8384 7.4792 27.4650 15.3064 3.7992 1.2514 -5.7321 15.6079 -7.3587 29.8541 3.7992 1.2514 -9.1427 -3.8108 -23.3306 -5.5061 Z"/>
    <path class="cls-4" d="M 293.6915 69.9323 s 1.5909 -25.8734 -4.1467 -40.6561 c 3.8768 0.0248 -17.4542 8.6440 -26.9672 16.3527 3.9321 0.7340 11.4456 15.0961 11.3587 29.9251 3.9321 0.7340 13.8752 -1.9360 23.2329 -4.2316 Z"/>
    <path class="cls-2" d="M 189.9878 113.8457 s -22.9697 -21.3025 0.0230 -63.2605 c 3.4163 2.0806 9.5579 8.1540 19.9836 18.5041 3.4163 2.0806 -11.7028 15.4031 -18.9017 42.4290 Z"/>
  </g>
</svg>
