<?xml version="1.0" encoding="UTF-8"?><svg id="Layer_1" xmlns="http://www.w3.org/2000/svg" viewBox="0 0 464.16 273.88"><defs><style>.cls-1{fill:#16592e;}.cls-2{fill:#d9b385;}.cls-3{fill:#d6ad7d;}.cls-4{fill:#ba797f;}.cls-5{fill:#61a37b;}.cls-6{fill:#bf8034;}</style></defs><path class="cls-6" d="M37.17,171.43c2.41.9,4.89,2.19,7.43,3.89,2.08,1.32,3.68,1.98,4.81,1.98.85,0,1.51-.5,1.98-1.49.47-.99.85-2.57,1.13-4.74h3.26c-.47,5.48-.71,15.1-.71,28.89h-3.26c-.57-7.65-2.76-14.09-6.58-19.33-3.82-5.24-9.37-7.86-16.64-7.86-5.1,0-9.25,1.54-12.46,4.6-3.21,3.07-4.81,7.01-4.81,11.82,0,3.59.83,6.7,2.48,9.35,1.65,2.64,3.75,4.91,6.3,6.8,2.55,1.89,6.18,4.3,10.9,7.22l4.11,2.55c5.95,3.68,10.64,6.92,14.09,9.7,3.44,2.79,6.21,5.97,8.28,9.56,2.08,3.59,3.12,7.79,3.12,12.6,0,8.59-2.83,15.22-8.5,19.9-5.66,4.67-12.84,7.01-21.52,7.01-4.53,0-8.24-.47-11.12-1.42-2.88-.94-5.64-2.22-8.28-3.82-2.08-1.32-3.68-1.98-4.81-1.98-.85,0-1.51.49-1.98,1.49-.47.99-.85,2.57-1.13,4.74H0c.38-5.19.57-16.52.57-33.99h3.26c.66,9.54,3.02,17.28,7.08,23.22,4.06,5.95,10.29,8.92,18.69,8.92,5.1,0,9.44-1.58,13.03-4.74,3.59-3.16,5.38-7.86,5.38-14.09,0-5.29-1.77-9.77-5.31-13.45s-9.13-7.83-16.78-12.46c-5.57-3.4-10.08-6.42-13.52-9.06-3.45-2.64-6.25-5.83-8.42-9.56-2.17-3.73-3.26-8.09-3.26-13.1,0-7.93,2.55-13.99,7.65-18.2,5.1-4.2,11.42-6.3,18.97-6.3,4.15,0,7.43.45,9.84,1.35Z"/><path class="cls-6" d="M176.15,198.97v2.83c-1.98.28-3.73,1.16-5.24,2.62-1.51,1.46-2.83,3.89-3.97,7.29l-20.53,60.89h-2.41l-22.37-56.92-20.25,56.92h-2.41l-23.22-62.73c-1.32-3.3-2.67-5.45-4.04-6.44-1.37-.99-2.76-1.49-4.18-1.49v-2.97c3.68.57,7.83.85,12.46.85s10.85-.28,18.41-.85v2.97c-3.49,0-6.02.28-7.58.85-1.56.57-2.34,2.03-2.34,4.39,0,1.7.47,3.92,1.42,6.66l14.16,40.78,20.39-56.22h3.26l21.67,57.21,13.31-40.5c.85-2.55,1.27-4.67,1.27-6.37,0-2.27-.8-3.92-2.41-4.96-1.61-1.04-4.3-1.7-8.07-1.98v-2.83c5,.28,8.97.42,11.89.42,4.15,0,7.74-.14,10.76-.42Z"/><path class="cls-6" d="M185.57,268.43c-2.88-2.97-4.32-7.1-4.32-12.39,0-4.25,1.16-7.74,3.47-10.48,2.31-2.74,5.05-4.91,8.21-6.51,3.16-1.6,7.34-3.3,12.53-5.1,5.29-1.79,9.2-3.45,11.75-4.96,2.55-1.51,3.82-3.54,3.82-6.09v-8.78c0-5.47-1.16-9.23-3.47-11.26-2.31-2.03-5.55-3.04-9.7-3.04-6.61,0-11.28,1.7-14.02,5.1,1.89.47,3.47,1.46,4.74,2.97,1.27,1.51,1.91,3.4,1.91,5.66s-.76,4.23-2.27,5.59c-1.51,1.37-3.45,2.05-5.81,2.05-2.64,0-4.63-.83-5.95-2.48-1.32-1.65-1.98-3.66-1.98-6.02s.54-4.15,1.63-5.66c1.08-1.51,2.71-3.02,4.89-4.53,2.27-1.6,5.14-2.92,8.64-3.96,3.49-1.04,7.31-1.56,11.47-1.56,7.36,0,12.93,1.75,16.71,5.24,2.36,2.17,3.94,4.79,4.74,7.86.8,3.07,1.2,7.1,1.2,12.11v39.37c0,2.36.33,4.06.99,5.1.66,1.04,1.79,1.56,3.4,1.56,1.13,0,2.19-.26,3.19-.78.99-.52,2.05-1.25,3.19-2.19l1.56,2.41c-2.46,1.89-4.56,3.23-6.3,4.04-1.75.8-3.94,1.2-6.58,1.2-4.53,0-7.69-1.13-9.49-3.4-1.79-2.27-2.69-5.33-2.69-9.2-2.83,4.72-6.09,8-9.77,9.84-3.68,1.84-7.84,2.76-12.46,2.76-5.95,0-10.36-1.49-13.24-4.46ZM221.04,256.46v-27.75c-.85,1.32-2.03,2.41-3.54,3.26-1.51.85-3.82,1.98-6.94,3.4-3.59,1.51-6.49,2.95-8.71,4.32-2.22,1.37-4.13,3.23-5.73,5.59-1.61,2.36-2.41,5.38-2.41,9.06,0,4.25,1.04,7.46,3.12,9.63,2.08,2.17,4.81,3.26,8.21,3.26,6.23,0,11.56-3.59,16-10.76Z"/><path class="cls-6" d="M303.66,200.24c2.41,2.17,3.61,4.81,3.61,7.93,0,2.46-.73,4.56-2.19,6.3-1.46,1.75-3.42,2.62-5.88,2.62-2.08,0-3.85-.66-5.31-1.98-1.47-1.32-2.19-3.12-2.19-5.38,0-3.12,1.6-5.66,4.81-7.65-.66-.94-1.65-1.42-2.98-1.42-3.68,0-7.03,1.44-10.05,4.32-3.02,2.88-5.38,6.4-7.08,10.55-1.7,4.16-2.55,8.07-2.55,11.75v30.02c0,4.34,1.25,7.36,3.75,9.06,2.5,1.7,6.25,2.55,11.26,2.55v2.97l-3.4-.14c-9.63-.28-15.77-.42-18.41-.42-2.46,0-8.02.19-16.71.57v-2.97c3.96,0,6.75-.73,8.35-2.19,1.6-1.46,2.41-4.13,2.41-8v-44.32c0-4.34-.8-7.5-2.41-9.49-1.61-1.98-4.39-2.97-8.35-2.97v-2.97c3.02.28,5.95.42,8.78.42,5.95,0,10.86-.66,14.73-1.98v17.7c1.7-4.72,4.41-8.92,8.14-12.6s7.86-5.52,12.39-5.52c3.78,0,6.87,1.09,9.27,3.26Z"/><path class="cls-6" d="M375.95,202.37c1.79,1.89,3.07,4.25,3.82,7.08.75,2.83,1.13,6.66,1.13,11.47v37.81c0,3.87.8,6.54,2.41,8,1.6,1.46,4.39,2.19,8.36,2.19v2.97c-8.69-.38-14.35-.57-16.99-.57s-7.93.19-15.86.57v-2.97c3.49,0,5.92-.73,7.29-2.19,1.37-1.46,2.05-4.13,2.05-8v-40.92c0-5.29-.76-9.32-2.27-12.11-1.51-2.78-4.58-4.18-9.2-4.18-3.87,0-7.32,1.13-10.34,3.4-3.02,2.27-5.36,5.36-7.01,9.28-1.65,3.92-2.48,8.28-2.48,13.1v31.44c0,3.87.68,6.54,2.05,8,1.37,1.46,3.8,2.19,7.29,2.19v2.97c-7.93-.38-13.22-.57-15.86-.57s-8.31.19-16.99.57v-2.97c3.97,0,6.75-.73,8.36-2.19,1.6-1.46,2.41-4.13,2.41-8v-44.32c0-4.34-.8-7.5-2.41-9.49-1.61-1.98-4.39-2.97-8.36-2.97v-2.97c3.02.28,5.95.42,8.78.42,5.95,0,10.85-.66,14.73-1.98v16.71c2.36-6.04,5.64-10.41,9.84-13.1,4.2-2.69,8.94-4.04,14.23-4.04,6.61,0,11.61,1.79,15.01,5.38Z"/><path class="cls-6" d="M403.63,268.43c-2.88-2.97-4.32-7.1-4.32-12.39,0-4.25,1.15-7.74,3.47-10.48,2.31-2.74,5.05-4.91,8.21-6.51,3.16-1.6,7.34-3.3,12.53-5.1,5.29-1.79,9.2-3.45,11.75-4.96,2.55-1.51,3.82-3.54,3.82-6.09v-8.78c0-5.47-1.16-9.23-3.47-11.26-2.31-2.03-5.55-3.04-9.7-3.04-6.61,0-11.28,1.7-14.02,5.1,1.89.47,3.47,1.46,4.74,2.97,1.27,1.51,1.91,3.4,1.91,5.66s-.76,4.23-2.27,5.59c-1.51,1.37-3.45,2.05-5.81,2.05-2.64,0-4.63-.83-5.95-2.48-1.32-1.65-1.98-3.66-1.98-6.02s.54-4.15,1.63-5.66c1.08-1.51,2.71-3.02,4.89-4.53,2.27-1.6,5.14-2.92,8.64-3.96,3.49-1.04,7.31-1.56,11.47-1.56,7.36,0,12.93,1.75,16.71,5.24,2.36,2.17,3.94,4.79,4.74,7.86.8,3.07,1.2,7.1,1.2,12.11v39.37c0,2.36.33,4.06.99,5.1.66,1.04,1.79,1.56,3.4,1.56,1.13,0,2.19-.26,3.19-.78.99-.52,2.05-1.25,3.19-2.19l1.56,2.41c-2.46,1.89-4.56,3.23-6.3,4.04-1.75.8-3.94,1.2-6.58,1.2-4.53,0-7.7-1.13-9.49-3.4-1.79-2.27-2.69-5.33-2.69-9.2-2.83,4.72-6.09,8-9.77,9.84-3.68,1.84-7.84,2.76-12.46,2.76-5.95,0-10.36-1.49-13.24-4.46ZM439.1,256.46v-27.75c-.85,1.32-2.03,2.41-3.54,3.26-1.51.85-3.82,1.98-6.94,3.4-3.59,1.51-6.49,2.95-8.71,4.32-2.22,1.37-4.13,3.23-5.73,5.59-1.61,2.36-2.41,5.38-2.41,9.06,0,4.25,1.04,7.46,3.12,9.63,2.08,2.17,4.81,3.26,8.21,3.26,6.23,0,11.56-3.59,16-10.76Z"/><path class="cls-3" d="M147.04,80.39s-2.02,55.52,53.94,80.69c0,0-7.42-15.73-8.54-30.12,0,0-20.9-18.88-19.11-42.48,0,0-13.71-6.52-26.3-8.09Z"/><path class="cls-3" d="M297.4,79.83s2.02,55.52-53.94,80.69c0,0,7.42-15.73,8.54-30.12,0,0,20.9-18.88,19.11-42.48,0,0,13.71-6.52,26.3-8.09Z"/><path class="cls-3" d="M198.62,39.67s12.14-27.08,23.38-39.67c0,0,11.01,11.91,23.49,39.78,0,0-14.95,11.69-22.93,23.49,0,0-20.9-21.8-23.94-23.6Z"/><path class="cls-3" d="M221.29,169.62s-40.46-38.36.6-90.51c0,0,44.35,49.75-.6,90.51Z"/><path class="cls-5" d="M97.82,141.6s26.07-9.89,53.19-9.14c0,0,17.68,24.42,34.76,31.02,0,0-44.13,18.88-87.96-21.88Z"/><path class="cls-5" d="M345.36,141.75s-26.07-9.89-53.19-9.14c0,0-17.68,24.42-34.76,31.02,0,0,44.13,18.88,87.96-21.88Z"/><path class="cls-5" d="M165.92,177.26s-5.17,3.93-9.55,9.1l49,.34,8.65-9.66s-4.38-2.81-13.82-3.71c0,0-12.92,0-33.83,3.82"/><path class="cls-5" d="M277.89,177.32s5.17,3.93,9.55,9.1l-49,.34-8.65-9.66s4.38-2.81,13.82-3.71c0,0,12.92,0,33.83,3.82"/><path class="cls-1" d="M137.21,80.43c-.9,23.68,8.69,41.36,8.69,41.36l-18.28.9c-23.68-14.09-26.97-45.85-26.97-45.85,4.06-.2,8.48-.21,13.2.06,8.9.5,16.75,1.9,23.36,3.54Z"/><path class="cls-1" d="M306.79,80.2c.9,23.68-8.69,41.36-8.69,41.36l18.28.9c23.68-14.09,26.97-45.85,26.97-45.85-4.06-.2-8.48-.21-13.2.06-8.9.5-16.75,1.9-23.36,3.54Z"/><path class="cls-4" d="M146.74,70.73s.22-29.44,5.84-44.28c.01-.92,21.4,9.3,30.79,17.53,0,0-8.77,18.21-9.44,33.27,0,0-12.89-5.21-27.2-6.52Z"/><path class="cls-4" d="M297.58,70.87s-.22-29.44-5.84-44.28c-.01-.92-21.4,9.3-30.79,17.53,0,0,9.96,18.81,10.64,33.86,0,0,12.14-5.54,26-7.12Z"/><path class="cls-2" d="M193.42,115.9s-26.07-23.83-.67-67.2c0,0,13.49,7.42,22.25,21.8,0,0-15.51,16.63-21.58,45.4Z"/><path class="cls-3" d="M250.28,115.45s26.07-23.83.67-67.2c0,0-13.49,7.42-22.25,21.8,0,0,15.51,16.63,21.58,45.4Z"/></svg>