<?xml version="1.0" encoding="UTF-8"?><svg xmlns="http://www.w3.org/2000/svg" viewBox="0 0 960 960"><defs><style>.cls-1{fill:#16592e;}.cls-2{fill:#d9b385;}.cls-3{fill:#d6ad7d;}.cls-4{fill:#ba797f;}.cls-5{fill:#61a37b;}.cls-6{fill:#bf8034;}</style></defs><g id="Layer_1"><path class="cls-6" d="M267.01,430.24c2.38.89,4.83,2.17,7.35,3.85,2.05,1.31,3.64,1.96,4.76,1.96.84,0,1.49-.49,1.96-1.47.47-.98.84-2.54,1.12-4.69h3.22c-.47,5.41-.7,14.93-.7,28.56h-3.22c-.56-7.56-2.73-13.93-6.51-19.11-3.78-5.18-9.26-7.77-16.45-7.77-5.04,0-9.15,1.52-12.32,4.55-3.17,3.03-4.76,6.93-4.76,11.69,0,3.55.82,6.63,2.45,9.24,1.63,2.61,3.71,4.85,6.23,6.72,2.52,1.87,6.11,4.25,10.78,7.14l4.06,2.52c5.88,3.64,10.52,6.84,13.93,9.59,3.41,2.75,6.14,5.9,8.19,9.45,2.05,3.55,3.08,7.7,3.08,12.46,0,8.49-2.8,15.05-8.4,19.67-5.6,4.62-12.69,6.93-21.28,6.93-4.48,0-8.14-.47-10.99-1.4-2.85-.93-5.58-2.19-8.19-3.78-2.05-1.31-3.64-1.96-4.76-1.96-.84,0-1.49.49-1.96,1.47-.47.98-.84,2.54-1.12,4.69h-3.22c.37-5.13.56-16.33.56-33.6h3.22c.65,9.43,2.99,17.08,7,22.96,4.01,5.88,10.17,8.82,18.48,8.82,5.04,0,9.33-1.56,12.88-4.69,3.55-3.13,5.32-7.77,5.32-13.93,0-5.23-1.75-9.66-5.25-13.3s-9.03-7.75-16.59-12.32c-5.51-3.36-9.96-6.35-13.37-8.96-3.41-2.61-6.18-5.76-8.33-9.45-2.15-3.69-3.22-8-3.22-12.95,0-7.84,2.52-13.84,7.56-17.99,5.04-4.15,11.29-6.23,18.76-6.23,4.11,0,7.35.44,9.73,1.33Z"/><path class="cls-6" d="M404.42,457.47v2.8c-1.96.28-3.69,1.14-5.18,2.59-1.49,1.45-2.8,3.85-3.92,7.21l-20.3,60.2h-2.38l-22.12-56.28-20.02,56.28h-2.38l-22.96-62.02c-1.31-3.27-2.64-5.39-3.99-6.37-1.35-.98-2.73-1.47-4.13-1.47v-2.94c3.64.56,7.75.84,12.32.84s10.73-.28,18.2-.84v2.94c-3.45,0-5.95.28-7.49.84-1.54.56-2.31,2.01-2.31,4.34,0,1.68.47,3.87,1.4,6.58l14,40.32,20.16-55.58h3.22l21.42,56.56,13.16-40.04c.84-2.52,1.26-4.62,1.26-6.3,0-2.24-.79-3.87-2.38-4.9-1.59-1.03-4.25-1.68-7.98-1.96v-2.8c4.95.28,8.87.42,11.76.42,4.11,0,7.65-.14,10.64-.42Z"/><path class="cls-6" d="M413.73,526.14c-2.85-2.94-4.27-7.02-4.27-12.25,0-4.2,1.14-7.65,3.43-10.36,2.29-2.71,4.99-4.85,8.12-6.44,3.13-1.59,7.26-3.27,12.39-5.04,5.23-1.77,9.1-3.41,11.62-4.9,2.52-1.49,3.78-3.5,3.78-6.02v-8.68c0-5.41-1.14-9.12-3.43-11.13-2.29-2.01-5.48-3.01-9.59-3.01-6.53,0-11.15,1.68-13.86,5.04,1.87.47,3.43,1.45,4.69,2.94,1.26,1.49,1.89,3.36,1.89,5.6s-.75,4.18-2.24,5.53c-1.49,1.35-3.41,2.03-5.74,2.03-2.61,0-4.57-.82-5.88-2.45-1.31-1.63-1.96-3.62-1.96-5.95s.54-4.11,1.61-5.6c1.07-1.49,2.68-2.99,4.83-4.48,2.24-1.59,5.09-2.89,8.54-3.92,3.45-1.03,7.23-1.54,11.34-1.54,7.28,0,12.79,1.73,16.52,5.18,2.33,2.15,3.9,4.74,4.69,7.77.79,3.03,1.19,7.02,1.19,11.97v38.92c0,2.33.33,4.01.98,5.04.65,1.03,1.77,1.54,3.36,1.54,1.12,0,2.17-.26,3.15-.77.98-.51,2.03-1.24,3.15-2.17l1.54,2.38c-2.43,1.87-4.5,3.2-6.23,3.99-1.73.79-3.9,1.19-6.51,1.19-4.48,0-7.61-1.12-9.38-3.36-1.77-2.24-2.66-5.27-2.66-9.1-2.8,4.67-6.02,7.91-9.66,9.73-3.64,1.82-7.75,2.73-12.32,2.73-5.88,0-10.24-1.47-13.09-4.41ZM448.8,514.31v-27.44c-.84,1.31-2.01,2.38-3.5,3.22-1.49.84-3.78,1.96-6.86,3.36-3.55,1.49-6.42,2.92-8.61,4.27-2.19,1.35-4.08,3.2-5.67,5.53-1.59,2.33-2.38,5.32-2.38,8.96,0,4.2,1.03,7.37,3.08,9.52,2.05,2.15,4.76,3.22,8.12,3.22,6.16,0,11.43-3.55,15.82-10.64Z"/><path class="cls-6" d="M530.49,458.73c2.38,2.15,3.57,4.76,3.57,7.84,0,2.43-.72,4.5-2.17,6.23-1.45,1.73-3.38,2.59-5.81,2.59-2.05,0-3.8-.65-5.25-1.96-1.45-1.31-2.17-3.08-2.17-5.32,0-3.08,1.59-5.6,4.76-7.56-.65-.93-1.63-1.4-2.94-1.4-3.64,0-6.95,1.42-9.94,4.27-2.99,2.85-5.32,6.32-7,10.43-1.68,4.11-2.52,7.98-2.52,11.62v29.68c0,4.29,1.24,7.28,3.71,8.96s6.18,2.52,11.13,2.52v2.94l-3.36-.14c-9.52-.28-15.59-.42-18.2-.42-2.43,0-7.93.19-16.52.56v-2.94c3.92,0,6.67-.72,8.26-2.17,1.59-1.45,2.38-4.08,2.38-7.91v-43.82c0-4.29-.79-7.42-2.38-9.38-1.59-1.96-4.34-2.94-8.26-2.94v-2.94c2.99.28,5.88.42,8.68.42,5.88,0,10.73-.65,14.56-1.96v17.5c1.68-4.67,4.36-8.82,8.05-12.46s7.77-5.46,12.25-5.46c3.73,0,6.79,1.07,9.17,3.22Z"/><path class="cls-6" d="M601.96,460.83c1.77,1.87,3.03,4.2,3.78,7,.75,2.8,1.12,6.58,1.12,11.34v37.38c0,3.83.79,6.46,2.38,7.91,1.59,1.45,4.34,2.17,8.26,2.17v2.94c-8.59-.37-14.19-.56-16.8-.56s-7.84.19-15.68.56v-2.94c3.45,0,5.86-.72,7.21-2.17,1.35-1.45,2.03-4.08,2.03-7.91v-40.46c0-5.23-.75-9.22-2.24-11.97-1.49-2.75-4.53-4.13-9.1-4.13-3.83,0-7.23,1.12-10.22,3.36-2.99,2.24-5.3,5.3-6.93,9.17-1.63,3.87-2.45,8.19-2.45,12.95v31.08c0,3.83.68,6.46,2.03,7.91,1.35,1.45,3.76,2.17,7.21,2.17v2.94c-7.84-.37-13.07-.56-15.68-.56s-8.21.19-16.8.56v-2.94c3.92,0,6.67-.72,8.26-2.17,1.59-1.45,2.38-4.08,2.38-7.91v-43.82c0-4.29-.79-7.42-2.38-9.38-1.59-1.96-4.34-2.94-8.26-2.94v-2.94c2.99.28,5.88.42,8.68.42,5.88,0,10.73-.65,14.56-1.96v16.52c2.33-5.97,5.58-10.29,9.73-12.95,4.15-2.66,8.84-3.99,14.07-3.99,6.53,0,11.48,1.77,14.84,5.32Z"/><path class="cls-6" d="M629.33,526.14c-2.85-2.94-4.27-7.02-4.27-12.25,0-4.2,1.14-7.65,3.43-10.36,2.29-2.71,4.99-4.85,8.12-6.44,3.13-1.59,7.26-3.27,12.39-5.04,5.23-1.77,9.1-3.41,11.62-4.9,2.52-1.49,3.78-3.5,3.78-6.02v-8.68c0-5.41-1.14-9.12-3.43-11.13-2.29-2.01-5.48-3.01-9.59-3.01-6.53,0-11.15,1.68-13.86,5.04,1.87.47,3.43,1.45,4.69,2.94,1.26,1.49,1.89,3.36,1.89,5.6s-.75,4.18-2.24,5.53c-1.49,1.35-3.41,2.03-5.74,2.03-2.61,0-4.57-.82-5.88-2.45-1.31-1.63-1.96-3.62-1.96-5.95s.54-4.11,1.61-5.6c1.07-1.49,2.68-2.99,4.83-4.48,2.24-1.59,5.09-2.89,8.54-3.92,3.45-1.03,7.23-1.54,11.34-1.54,7.28,0,12.79,1.73,16.52,5.18,2.33,2.15,3.9,4.74,4.69,7.77.79,3.03,1.19,7.02,1.19,11.97v38.92c0,2.33.33,4.01.98,5.04.65,1.03,1.77,1.54,3.36,1.54,1.12,0,2.17-.26,3.15-.77.98-.51,2.03-1.24,3.15-2.17l1.54,2.38c-2.43,1.87-4.5,3.2-6.23,3.99-1.73.79-3.9,1.19-6.51,1.19-4.48,0-7.61-1.12-9.38-3.36-1.77-2.24-2.66-5.27-2.66-9.1-2.8,4.67-6.02,7.91-9.66,9.73-3.64,1.82-7.75,2.73-12.32,2.73-5.88,0-10.24-1.47-13.09-4.41ZM664.4,514.31v-27.44c-.84,1.31-2.01,2.38-3.5,3.22-1.49.84-3.78,1.96-6.86,3.36-3.55,1.49-6.42,2.92-8.61,4.27-2.19,1.35-4.08,3.2-5.67,5.53-1.59,2.33-2.38,5.32-2.38,8.96,0,4.2,1.03,7.37,3.08,9.52,2.05,2.15,4.76,3.22,8.12,3.22,6.16,0,11.43-3.55,15.82-10.64Z"/><path class="cls-3" d="M375.64,340.23s-2,54.89,53.33,79.78c0,0-7.33-15.56-8.44-29.78,0,0-20.67-18.67-18.89-42,0,0-13.56-6.44-26-8Z"/><path class="cls-3" d="M524.3,339.68s2,54.89-53.33,79.78c0,0,7.33-15.56,8.44-29.78,0,0,20.67-18.67,18.89-42,0,0,13.56-6.44,26-8Z"/><path class="cls-3" d="M426.64,299.97s12-26.78,23.11-39.22c0,0,10.89,11.78,23.22,39.33,0,0-14.78,11.56-22.67,23.22,0,0-20.67-21.56-23.67-23.33Z"/><path class="cls-3" d="M449.05,428.45s-40-37.93.59-89.48c0,0,43.85,49.19-.59,89.48Z"/><path class="cls-5" d="M326.98,400.75s25.78-9.78,52.59-9.04c0,0,17.48,24.15,34.37,30.67,0,0-43.63,18.67-86.96-21.63Z"/><path class="cls-5" d="M571.72,400.9s-25.78-9.78-52.59-9.04c0,0-17.48,24.15-34.37,30.67,0,0,43.63,18.67,86.96-21.63Z"/><path class="cls-5" d="M394.31,436.01s-5.11,3.89-9.44,9l48.44.33,8.56-9.56s-4.33-2.78-13.67-3.67c0,0-12.78,0-33.44,3.78"/><path class="cls-5" d="M505.01,436.06s5.11,3.89,9.44,9l-48.44.33-8.56-9.56s4.33-2.78,13.67-3.67c0,0,12.78,0,33.44,3.78"/></g><g id="Layer_3"><path class="cls-1" d="M365.92,340.27c-.89,23.41,8.59,40.89,8.59,40.89l-18.07.89c-23.41-13.93-26.67-45.33-26.67-45.33,4.02-.19,8.39-.21,13.06.06,8.8.5,16.56,1.88,23.09,3.5Z"/><path class="cls-1" d="M533.58,340.04c.89,23.41-8.59,40.89-8.59,40.89l18.07.89c23.41-13.93,26.67-45.33,26.67-45.33-4.02-.19-8.39-.21-13.06.06-8.8.5-16.56,1.88-23.09,3.5Z"/><path class="cls-4" d="M375.35,330.68s.22-29.11,5.78-43.78c.01-.91,21.16,9.2,30.44,17.33,0,0-8.67,18-9.33,32.89,0,0-12.74-5.15-26.89-6.44Z"/><path class="cls-4" d="M524.47,330.82s-.22-29.11-5.78-43.78c-.01-.91-21.16,9.2-30.44,17.33,0,0,9.85,18.59,10.52,33.48,0,0,12-5.48,25.7-7.04Z"/><path class="cls-2" d="M421.49,375.34s-25.78-23.56-.67-66.44c0,0,13.33,7.33,22,21.56,0,0-15.33,16.44-21.33,44.89Z"/><path class="cls-3" d="M477.72,374.9s25.78-23.56.67-66.44c0,0-13.33,7.33-22,21.56,0,0,15.33,16.44,21.33,44.89Z"/></g></svg>